<mxfile host="app.diagrams.net" modified="2023-04-17T16:25:24.203Z" agent="Mozilla/5.0 (Windows NT 10.0; Win64; x64; rv:109.0) Gecko/20100101 Firefox/111.0" etag="Mcf9nJl-yLSMVstQshat" version="21.1.8" type="device">
  <diagram id="dwyxTxDwRuyCByYb2_Ma" name="Page-1">
    <mxGraphModel dx="1434" dy="703" grid="1" gridSize="10" guides="1" tooltips="1" connect="1" arrows="1" fold="1" page="1" pageScale="1" pageWidth="850" pageHeight="1100" math="0" shadow="0">
      <root>
        <mxCell id="0" />
        <mxCell id="1" parent="0" />
        <mxCell id="_gErArbm2qARKDL_-JOw-9" style="edgeStyle=orthogonalEdgeStyle;rounded=0;orthogonalLoop=1;jettySize=auto;html=1;exitX=0;exitY=0.5;exitDx=0;exitDy=0;exitPerimeter=0;entryX=0.01;entryY=0.99;entryDx=0;entryDy=0;entryPerimeter=0;" parent="1" source="_gErArbm2qARKDL_-JOw-1" target="_gErArbm2qARKDL_-JOw-2" edge="1">
          <mxGeometry relative="1" as="geometry" />
        </mxCell>
        <mxCell id="_gErArbm2qARKDL_-JOw-22" style="edgeStyle=orthogonalEdgeStyle;rounded=0;orthogonalLoop=1;jettySize=auto;html=1;exitX=1;exitY=0.21;exitDx=0;exitDy=0;exitPerimeter=0;entryX=1;entryY=0.8;entryDx=0;entryDy=0;entryPerimeter=0;" parent="1" source="_gErArbm2qARKDL_-JOw-1" target="_gErArbm2qARKDL_-JOw-12" edge="1">
          <mxGeometry relative="1" as="geometry" />
        </mxCell>
        <mxCell id="_v2u9tMPSnN9jnqCEOpH-14" style="edgeStyle=orthogonalEdgeStyle;rounded=0;orthogonalLoop=1;jettySize=auto;html=1;exitX=0;exitY=0.79;exitDx=0;exitDy=0;exitPerimeter=0;entryX=0.25;entryY=0;entryDx=0;entryDy=0;" edge="1" parent="1" source="_gErArbm2qARKDL_-JOw-1" target="_gErArbm2qARKDL_-JOw-42">
          <mxGeometry relative="1" as="geometry" />
        </mxCell>
        <mxCell id="_gErArbm2qARKDL_-JOw-1" value="" style="outlineConnect=0;dashed=0;verticalLabelPosition=bottom;verticalAlign=top;align=center;html=1;shape=mxgraph.aws3.cognito;fillColor=#AD688B;gradientColor=none;" parent="1" vertex="1">
          <mxGeometry x="360" y="300" width="76.5" height="93" as="geometry" />
        </mxCell>
        <mxCell id="_gErArbm2qARKDL_-JOw-8" style="edgeStyle=orthogonalEdgeStyle;rounded=0;orthogonalLoop=1;jettySize=auto;html=1;exitX=0.99;exitY=0.99;exitDx=0;exitDy=0;exitPerimeter=0;entryX=0.046;entryY=0.151;entryDx=0;entryDy=0;entryPerimeter=0;" parent="1" source="_gErArbm2qARKDL_-JOw-2" target="_gErArbm2qARKDL_-JOw-1" edge="1">
          <mxGeometry relative="1" as="geometry" />
        </mxCell>
        <mxCell id="_gErArbm2qARKDL_-JOw-11" style="edgeStyle=orthogonalEdgeStyle;rounded=0;orthogonalLoop=1;jettySize=auto;html=1;exitX=1;exitY=0.5;exitDx=0;exitDy=0;exitPerimeter=0;" parent="1" source="_gErArbm2qARKDL_-JOw-2" edge="1">
          <mxGeometry relative="1" as="geometry">
            <mxPoint x="360" y="131" as="targetPoint" />
          </mxGeometry>
        </mxCell>
        <mxCell id="_v2u9tMPSnN9jnqCEOpH-13" style="edgeStyle=orthogonalEdgeStyle;rounded=0;orthogonalLoop=1;jettySize=auto;html=1;exitX=0;exitY=0.5;exitDx=0;exitDy=0;exitPerimeter=0;entryX=0;entryY=0.75;entryDx=0;entryDy=0;" edge="1" parent="1" source="_gErArbm2qARKDL_-JOw-2" target="_gErArbm2qARKDL_-JOw-42">
          <mxGeometry relative="1" as="geometry">
            <Array as="points">
              <mxPoint x="60" y="131" />
              <mxPoint x="60" y="559" />
            </Array>
          </mxGeometry>
        </mxCell>
        <mxCell id="_gErArbm2qARKDL_-JOw-2" value="" style="aspect=fixed;pointerEvents=1;shadow=0;dashed=0;html=1;strokeColor=none;labelPosition=center;verticalLabelPosition=bottom;verticalAlign=top;align=center;fillColor=#00188D;shape=mxgraph.mscae.enterprise.android_phone" parent="1" vertex="1">
          <mxGeometry x="100" y="106" width="30" height="50" as="geometry" />
        </mxCell>
        <mxCell id="_gErArbm2qARKDL_-JOw-19" style="edgeStyle=orthogonalEdgeStyle;rounded=0;orthogonalLoop=1;jettySize=auto;html=1;exitX=0.915;exitY=0.699;exitDx=0;exitDy=0;exitPerimeter=0;entryX=0;entryY=0.79;entryDx=0;entryDy=0;entryPerimeter=0;" parent="1" source="_gErArbm2qARKDL_-JOw-12" target="_gErArbm2qARKDL_-JOw-4" edge="1">
          <mxGeometry relative="1" as="geometry" />
        </mxCell>
        <mxCell id="_gErArbm2qARKDL_-JOw-27" style="edgeStyle=orthogonalEdgeStyle;rounded=0;orthogonalLoop=1;jettySize=auto;html=1;exitX=0;exitY=0.22;exitDx=0;exitDy=0;exitPerimeter=0;entryX=1;entryY=0.21;entryDx=0;entryDy=0;entryPerimeter=0;" parent="1" source="_gErArbm2qARKDL_-JOw-25" target="_gErArbm2qARKDL_-JOw-4" edge="1">
          <mxGeometry relative="1" as="geometry" />
        </mxCell>
        <mxCell id="_gErArbm2qARKDL_-JOw-29" style="edgeStyle=orthogonalEdgeStyle;rounded=0;orthogonalLoop=1;jettySize=auto;html=1;exitX=0.5;exitY=1;exitDx=0;exitDy=0;exitPerimeter=0;entryX=0;entryY=0.21;entryDx=0;entryDy=0;entryPerimeter=0;" parent="1" source="_gErArbm2qARKDL_-JOw-4" target="_gErArbm2qARKDL_-JOw-6" edge="1">
          <mxGeometry relative="1" as="geometry" />
        </mxCell>
        <mxCell id="_v2u9tMPSnN9jnqCEOpH-3" style="edgeStyle=orthogonalEdgeStyle;rounded=0;orthogonalLoop=1;jettySize=auto;html=1;exitX=0.5;exitY=1;exitDx=0;exitDy=0;exitPerimeter=0;entryX=0;entryY=0.25;entryDx=0;entryDy=0;entryPerimeter=0;" edge="1" parent="1" source="_gErArbm2qARKDL_-JOw-4" target="_gErArbm2qARKDL_-JOw-7">
          <mxGeometry relative="1" as="geometry" />
        </mxCell>
        <mxCell id="_gErArbm2qARKDL_-JOw-4" value="" style="outlineConnect=0;dashed=0;verticalLabelPosition=bottom;verticalAlign=top;align=center;html=1;shape=mxgraph.aws3.lambda;fillColor=#F58534;gradientColor=none;" parent="1" vertex="1">
          <mxGeometry x="590" y="92" width="76.5" height="93" as="geometry" />
        </mxCell>
        <mxCell id="_gErArbm2qARKDL_-JOw-6" value="" style="outlineConnect=0;dashed=0;verticalLabelPosition=bottom;verticalAlign=top;align=center;html=1;shape=mxgraph.aws3.s3;fillColor=#E05243;gradientColor=none;" parent="1" vertex="1">
          <mxGeometry x="731" y="230" width="76.5" height="93" as="geometry" />
        </mxCell>
        <mxCell id="_gErArbm2qARKDL_-JOw-44" style="edgeStyle=orthogonalEdgeStyle;rounded=0;orthogonalLoop=1;jettySize=auto;html=1;exitX=0;exitY=0.48;exitDx=0;exitDy=0;exitPerimeter=0;entryX=1;entryY=0.5;entryDx=0;entryDy=0;" parent="1" source="_gErArbm2qARKDL_-JOw-7" target="_gErArbm2qARKDL_-JOw-42" edge="1">
          <mxGeometry relative="1" as="geometry" />
        </mxCell>
        <mxCell id="_gErArbm2qARKDL_-JOw-7" value="" style="outlineConnect=0;dashed=0;verticalLabelPosition=bottom;verticalAlign=top;align=center;html=1;shape=mxgraph.aws3.sns;fillColor=#D9A741;gradientColor=none;" parent="1" vertex="1">
          <mxGeometry x="720" y="393" width="76.5" height="76.5" as="geometry" />
        </mxCell>
        <mxCell id="_gErArbm2qARKDL_-JOw-13" style="edgeStyle=orthogonalEdgeStyle;rounded=0;orthogonalLoop=1;jettySize=auto;html=1;exitX=0;exitY=0.21;exitDx=0;exitDy=0;exitPerimeter=0;entryX=0.967;entryY=0.18;entryDx=0;entryDy=0;entryPerimeter=0;" parent="1" source="_gErArbm2qARKDL_-JOw-12" target="_gErArbm2qARKDL_-JOw-2" edge="1">
          <mxGeometry relative="1" as="geometry">
            <Array as="points">
              <mxPoint x="360" y="115" />
            </Array>
          </mxGeometry>
        </mxCell>
        <mxCell id="_gErArbm2qARKDL_-JOw-18" style="edgeStyle=orthogonalEdgeStyle;rounded=0;orthogonalLoop=1;jettySize=auto;html=1;exitX=0;exitY=0.21;exitDx=0;exitDy=0;exitPerimeter=0;entryX=0.65;entryY=0.5;entryDx=0;entryDy=0;entryPerimeter=0;" parent="1" source="_gErArbm2qARKDL_-JOw-4" target="_gErArbm2qARKDL_-JOw-12" edge="1">
          <mxGeometry relative="1" as="geometry" />
        </mxCell>
        <mxCell id="_gErArbm2qARKDL_-JOw-20" style="edgeStyle=orthogonalEdgeStyle;rounded=0;orthogonalLoop=1;jettySize=auto;html=1;exitX=0;exitY=0.8;exitDx=0;exitDy=0;exitPerimeter=0;entryX=0.5;entryY=0;entryDx=0;entryDy=0;entryPerimeter=0;" parent="1" source="_gErArbm2qARKDL_-JOw-12" target="_gErArbm2qARKDL_-JOw-1" edge="1">
          <mxGeometry relative="1" as="geometry">
            <Array as="points">
              <mxPoint x="380" y="159" />
              <mxPoint x="380" y="239" />
              <mxPoint x="398" y="239" />
            </Array>
          </mxGeometry>
        </mxCell>
        <mxCell id="_gErArbm2qARKDL_-JOw-12" value="" style="outlineConnect=0;dashed=0;verticalLabelPosition=bottom;verticalAlign=top;align=center;html=1;shape=mxgraph.aws3.api_gateway;fillColor=#D9A741;gradientColor=none;" parent="1" vertex="1">
          <mxGeometry x="360" y="85" width="76.5" height="93" as="geometry" />
        </mxCell>
        <mxCell id="_gErArbm2qARKDL_-JOw-28" style="edgeStyle=orthogonalEdgeStyle;rounded=0;orthogonalLoop=1;jettySize=auto;html=1;entryX=0;entryY=0.78;entryDx=0;entryDy=0;entryPerimeter=0;" parent="1" source="_gErArbm2qARKDL_-JOw-4" target="_gErArbm2qARKDL_-JOw-25" edge="1">
          <mxGeometry relative="1" as="geometry" />
        </mxCell>
        <mxCell id="_gErArbm2qARKDL_-JOw-25" value="" style="outlineConnect=0;dashed=0;verticalLabelPosition=bottom;verticalAlign=top;align=center;html=1;shape=mxgraph.aws3.dynamo_db;fillColor=#2E73B8;gradientColor=none;" parent="1" vertex="1">
          <mxGeometry x="734.5" y="97" width="72" height="81" as="geometry" />
        </mxCell>
        <mxCell id="_gErArbm2qARKDL_-JOw-31" value="&lt;div&gt;&lt;b&gt;Cognito&lt;/b&gt;&lt;/div&gt;&lt;div&gt;&lt;b&gt;&lt;br&gt;&lt;/b&gt;&lt;/div&gt;" style="text;html=1;align=center;verticalAlign=middle;resizable=0;points=[];autosize=1;" parent="1" vertex="1">
          <mxGeometry x="368.25" y="393" width="60" height="30" as="geometry" />
        </mxCell>
        <mxCell id="_gErArbm2qARKDL_-JOw-32" value="&lt;div&gt;&lt;b&gt;API Gateway&lt;/b&gt;&lt;/div&gt;&lt;div&gt;&lt;b&gt;&lt;br&gt;&lt;/b&gt;&lt;/div&gt;" style="text;html=1;align=center;verticalAlign=middle;resizable=0;points=[];autosize=1;" parent="1" vertex="1">
          <mxGeometry x="354" y="67" width="90" height="30" as="geometry" />
        </mxCell>
        <mxCell id="_gErArbm2qARKDL_-JOw-33" value="&lt;div&gt;&lt;b&gt;App&lt;/b&gt;&lt;/div&gt;" style="text;html=1;align=center;verticalAlign=middle;resizable=0;points=[];autosize=1;" parent="1" vertex="1">
          <mxGeometry x="90" y="75" width="50" height="30" as="geometry" />
        </mxCell>
        <mxCell id="_gErArbm2qARKDL_-JOw-34" value="&lt;b&gt;S3&lt;/b&gt;" style="text;html=1;align=center;verticalAlign=middle;resizable=0;points=[];autosize=1;" parent="1" vertex="1">
          <mxGeometry x="810" y="270" width="30" height="20" as="geometry" />
        </mxCell>
        <mxCell id="_gErArbm2qARKDL_-JOw-35" value="PUTS" style="text;html=1;align=center;verticalAlign=middle;resizable=0;points=[];autosize=1;" parent="1" vertex="1">
          <mxGeometry x="660" y="230" width="50" height="20" as="geometry" />
        </mxCell>
        <mxCell id="_gErArbm2qARKDL_-JOw-38" value="CRUD" style="text;html=1;align=center;verticalAlign=middle;resizable=0;points=[];autosize=1;" parent="1" vertex="1">
          <mxGeometry x="666.5" y="165" width="50" height="20" as="geometry" />
        </mxCell>
        <mxCell id="_gErArbm2qARKDL_-JOw-39" value="Response" style="text;html=1;align=center;verticalAlign=middle;resizable=0;points=[];autosize=1;" parent="1" vertex="1">
          <mxGeometry x="670" y="85" width="70" height="20" as="geometry" />
        </mxCell>
        <mxCell id="_gErArbm2qARKDL_-JOw-40" value="&lt;b&gt;Lambda&lt;/b&gt;" style="text;html=1;align=center;verticalAlign=middle;resizable=0;points=[];autosize=1;" parent="1" vertex="1">
          <mxGeometry x="598.25" y="67" width="60" height="20" as="geometry" />
        </mxCell>
        <mxCell id="_gErArbm2qARKDL_-JOw-41" value="&lt;b&gt;SNS&lt;/b&gt;" style="text;html=1;align=center;verticalAlign=middle;resizable=0;points=[];autosize=1;" parent="1" vertex="1">
          <mxGeometry x="796.5" y="423" width="40" height="20" as="geometry" />
        </mxCell>
        <mxCell id="_v2u9tMPSnN9jnqCEOpH-5" style="edgeStyle=orthogonalEdgeStyle;rounded=0;orthogonalLoop=1;jettySize=auto;html=1;exitX=0;exitY=0.5;exitDx=0;exitDy=0;entryX=0;entryY=0.5;entryDx=0;entryDy=0;entryPerimeter=0;" edge="1" parent="1" source="_gErArbm2qARKDL_-JOw-42" target="_gErArbm2qARKDL_-JOw-2">
          <mxGeometry relative="1" as="geometry" />
        </mxCell>
        <mxCell id="_v2u9tMPSnN9jnqCEOpH-15" style="edgeStyle=orthogonalEdgeStyle;rounded=0;orthogonalLoop=1;jettySize=auto;html=1;exitX=0.75;exitY=0;exitDx=0;exitDy=0;entryX=1;entryY=0.79;entryDx=0;entryDy=0;entryPerimeter=0;" edge="1" parent="1" source="_gErArbm2qARKDL_-JOw-42" target="_gErArbm2qARKDL_-JOw-1">
          <mxGeometry relative="1" as="geometry" />
        </mxCell>
        <mxCell id="_gErArbm2qARKDL_-JOw-42" value="" style="shape=image;html=1;verticalAlign=top;verticalLabelPosition=bottom;labelBackgroundColor=#ffffff;imageAspect=0;aspect=fixed;image=https://cdn4.iconfinder.com/data/icons/google-i-o-2016/512/google_firebase-128.png" parent="1" vertex="1">
          <mxGeometry x="358.5" y="500" width="78" height="78" as="geometry" />
        </mxCell>
        <mxCell id="_gErArbm2qARKDL_-JOw-45" value="&lt;div&gt;&lt;b&gt;Google Cloud&lt;/b&gt;&lt;/div&gt;" style="text;html=1;align=center;verticalAlign=middle;resizable=0;points=[];autosize=1;" parent="1" vertex="1">
          <mxGeometry x="350" y="580" width="100" height="30" as="geometry" />
        </mxCell>
        <mxCell id="_gErArbm2qARKDL_-JOw-46" value="Push to Firebase with data" style="text;html=1;align=center;verticalAlign=middle;resizable=0;points=[];autosize=1;" parent="1" vertex="1">
          <mxGeometry x="580" y="460" width="160" height="20" as="geometry" />
        </mxCell>
        <mxCell id="_gErArbm2qARKDL_-JOw-47" value="Send message to phone" style="text;html=1;align=center;verticalAlign=middle;resizable=0;points=[];autosize=1;" parent="1" vertex="1">
          <mxGeometry x="190" y="510" width="150" height="20" as="geometry" />
        </mxCell>
        <mxCell id="_gErArbm2qARKDL_-JOw-48" value="Authenticate" style="text;html=1;align=center;verticalAlign=middle;resizable=0;points=[];autosize=1;" parent="1" vertex="1">
          <mxGeometry x="205" y="210" width="80" height="20" as="geometry" />
        </mxCell>
        <mxCell id="_gErArbm2qARKDL_-JOw-49" value="Return tokens" style="text;html=1;align=center;verticalAlign=middle;resizable=0;points=[];autosize=1;" parent="1" vertex="1">
          <mxGeometry x="190" y="323" width="90" height="20" as="geometry" />
        </mxCell>
        <mxCell id="_gErArbm2qARKDL_-JOw-50" value="Make request" style="text;html=1;align=center;verticalAlign=middle;resizable=0;points=[];autosize=1;" parent="1" vertex="1">
          <mxGeometry x="180" y="136" width="90" height="20" as="geometry" />
        </mxCell>
        <mxCell id="_gErArbm2qARKDL_-JOw-51" value="Authorize" style="text;html=1;align=center;verticalAlign=middle;resizable=0;points=[];autosize=1;" parent="1" vertex="1">
          <mxGeometry x="374" y="210" width="70" height="20" as="geometry" />
        </mxCell>
        <mxCell id="_gErArbm2qARKDL_-JOw-52" value="Auth successful" style="text;html=1;align=center;verticalAlign=middle;resizable=0;points=[];autosize=1;" parent="1" vertex="1">
          <mxGeometry x="460" y="220" width="100" height="20" as="geometry" />
        </mxCell>
        <mxCell id="_gErArbm2qARKDL_-JOw-53" value="Request forwarded" style="text;html=1;align=center;verticalAlign=middle;resizable=0;points=[];autosize=1;" parent="1" vertex="1">
          <mxGeometry x="480" y="165" width="120" height="20" as="geometry" />
        </mxCell>
        <mxCell id="_gErArbm2qARKDL_-JOw-54" value="&lt;b&gt;DynamoDB&lt;/b&gt;" style="text;html=1;align=center;verticalAlign=middle;resizable=0;points=[];autosize=1;" parent="1" vertex="1">
          <mxGeometry x="806.5" y="127.5" width="80" height="20" as="geometry" />
        </mxCell>
        <mxCell id="_gErArbm2qARKDL_-JOw-55" value="Response" style="text;html=1;align=center;verticalAlign=middle;resizable=0;points=[];autosize=1;" parent="1" vertex="1">
          <mxGeometry x="445" y="100" width="70" height="20" as="geometry" />
        </mxCell>
        <mxCell id="_gErArbm2qARKDL_-JOw-56" value="Response" style="text;html=1;align=center;verticalAlign=middle;resizable=0;points=[];autosize=1;" parent="1" vertex="1">
          <mxGeometry x="195" y="90" width="70" height="20" as="geometry" />
        </mxCell>
        <mxCell id="_gErArbm2qARKDL_-JOw-57" value="Send notification to ARN" style="text;html=1;align=center;verticalAlign=middle;resizable=0;points=[];autosize=1;" parent="1" vertex="1">
          <mxGeometry x="630" y="336.5" width="150" height="20" as="geometry" />
        </mxCell>
        <mxCell id="_v2u9tMPSnN9jnqCEOpH-8" value="Verify Google token (optional)" style="text;html=1;align=center;verticalAlign=middle;resizable=0;points=[];autosize=1;strokeColor=none;fillColor=none;" vertex="1" parent="1">
          <mxGeometry x="170" y="400" width="180" height="30" as="geometry" />
        </mxCell>
        <mxCell id="_v2u9tMPSnN9jnqCEOpH-9" value="Token verified" style="text;html=1;align=center;verticalAlign=middle;resizable=0;points=[];autosize=1;strokeColor=none;fillColor=none;" vertex="1" parent="1">
          <mxGeometry x="450" y="400" width="100" height="30" as="geometry" />
        </mxCell>
        <mxCell id="_v2u9tMPSnN9jnqCEOpH-12" value="&lt;div&gt;Log any exception&lt;/div&gt;" style="text;html=1;align=center;verticalAlign=middle;resizable=0;points=[];autosize=1;strokeColor=none;fillColor=none;" vertex="1" parent="1">
          <mxGeometry x="145" y="560" width="120" height="30" as="geometry" />
        </mxCell>
      </root>
    </mxGraphModel>
  </diagram>
</mxfile>
